<mxfile host="app.diagrams.net" agent="Mozilla/5.0 (Windows NT 10.0; Win64; x64) AppleWebKit/537.36 (KHTML, like Gecko) Chrome/134.0.0.0 Safari/537.36" version="26.1.1">
  <diagram name="페이지-1" id="9uqP0VAIEdhfC3Y10hyc">
    <mxGraphModel dx="2743" dy="1125" grid="1" gridSize="10" guides="1" tooltips="1" connect="1" arrows="1" fold="1" page="0" pageScale="1" pageWidth="827" pageHeight="1169" math="0" shadow="0">
      <root>
        <mxCell id="0" />
        <mxCell id="1" parent="0" />
        <mxCell id="nPpBzZ0UAAfFh9ZcZdgi-3" value="Person" style="swimlane;fontStyle=1;align=center;verticalAlign=top;childLayout=stackLayout;horizontal=1;startSize=26;horizontalStack=0;resizeParent=1;resizeParentMax=0;resizeLast=0;collapsible=1;marginBottom=0;whiteSpace=wrap;html=1;" parent="1" vertex="1">
          <mxGeometry x="-1440" y="-200" width="160" height="86" as="geometry" />
        </mxCell>
        <mxCell id="nPpBzZ0UAAfFh9ZcZdgi-4" value="+ field: type" style="text;strokeColor=none;fillColor=none;align=left;verticalAlign=top;spacingLeft=4;spacingRight=4;overflow=hidden;rotatable=0;points=[[0,0.5],[1,0.5]];portConstraint=eastwest;whiteSpace=wrap;html=1;" parent="nPpBzZ0UAAfFh9ZcZdgi-3" vertex="1">
          <mxGeometry y="26" width="160" height="26" as="geometry" />
        </mxCell>
        <mxCell id="nPpBzZ0UAAfFh9ZcZdgi-5" value="" style="line;strokeWidth=1;fillColor=none;align=left;verticalAlign=middle;spacingTop=-1;spacingLeft=3;spacingRight=3;rotatable=0;labelPosition=right;points=[];portConstraint=eastwest;strokeColor=inherit;" parent="nPpBzZ0UAAfFh9ZcZdgi-3" vertex="1">
          <mxGeometry y="52" width="160" height="8" as="geometry" />
        </mxCell>
        <mxCell id="nPpBzZ0UAAfFh9ZcZdgi-6" value="+ method(type): type" style="text;strokeColor=none;fillColor=none;align=left;verticalAlign=top;spacingLeft=4;spacingRight=4;overflow=hidden;rotatable=0;points=[[0,0.5],[1,0.5]];portConstraint=eastwest;whiteSpace=wrap;html=1;" parent="nPpBzZ0UAAfFh9ZcZdgi-3" vertex="1">
          <mxGeometry y="60" width="160" height="26" as="geometry" />
        </mxCell>
        <mxCell id="nPpBzZ0UAAfFh9ZcZdgi-7" value="Car" style="swimlane;fontStyle=1;align=center;verticalAlign=top;childLayout=stackLayout;horizontal=1;startSize=26;horizontalStack=0;resizeParent=1;resizeParentMax=0;resizeLast=0;collapsible=1;marginBottom=0;whiteSpace=wrap;html=1;" parent="1" vertex="1">
          <mxGeometry x="-1080" y="-200" width="160" height="86" as="geometry" />
        </mxCell>
        <mxCell id="nPpBzZ0UAAfFh9ZcZdgi-8" value="+ field: type" style="text;strokeColor=none;fillColor=none;align=left;verticalAlign=top;spacingLeft=4;spacingRight=4;overflow=hidden;rotatable=0;points=[[0,0.5],[1,0.5]];portConstraint=eastwest;whiteSpace=wrap;html=1;" parent="nPpBzZ0UAAfFh9ZcZdgi-7" vertex="1">
          <mxGeometry y="26" width="160" height="26" as="geometry" />
        </mxCell>
        <mxCell id="nPpBzZ0UAAfFh9ZcZdgi-9" value="" style="line;strokeWidth=1;fillColor=none;align=left;verticalAlign=middle;spacingTop=-1;spacingLeft=3;spacingRight=3;rotatable=0;labelPosition=right;points=[];portConstraint=eastwest;strokeColor=inherit;" parent="nPpBzZ0UAAfFh9ZcZdgi-7" vertex="1">
          <mxGeometry y="52" width="160" height="8" as="geometry" />
        </mxCell>
        <mxCell id="nPpBzZ0UAAfFh9ZcZdgi-10" value="+ method(type): type" style="text;strokeColor=none;fillColor=none;align=left;verticalAlign=top;spacingLeft=4;spacingRight=4;overflow=hidden;rotatable=0;points=[[0,0.5],[1,0.5]];portConstraint=eastwest;whiteSpace=wrap;html=1;" parent="nPpBzZ0UAAfFh9ZcZdgi-7" vertex="1">
          <mxGeometry y="60" width="160" height="26" as="geometry" />
        </mxCell>
        <mxCell id="nPpBzZ0UAAfFh9ZcZdgi-11" value="사람이 자동차를 소유한다" style="text;html=1;align=center;verticalAlign=middle;whiteSpace=wrap;rounded=0;" parent="1" vertex="1">
          <mxGeometry x="-1440" y="-260" width="150" height="30" as="geometry" />
        </mxCell>
        <mxCell id="nPpBzZ0UAAfFh9ZcZdgi-12" value="소유한다라는 관계를 가진다." style="text;html=1;align=center;verticalAlign=middle;whiteSpace=wrap;rounded=0;" parent="1" vertex="1">
          <mxGeometry x="-1440" y="-240" width="160" height="30" as="geometry" />
        </mxCell>
        <mxCell id="nPpBzZ0UAAfFh9ZcZdgi-14" style="edgeStyle=none;curved=1;rounded=0;orthogonalLoop=1;jettySize=auto;html=1;entryX=0;entryY=0.5;entryDx=0;entryDy=0;fontSize=12;startSize=8;endSize=8;" parent="1" source="nPpBzZ0UAAfFh9ZcZdgi-4" target="nPpBzZ0UAAfFh9ZcZdgi-8" edge="1">
          <mxGeometry relative="1" as="geometry" />
        </mxCell>
        <mxCell id="nPpBzZ0UAAfFh9ZcZdgi-15" value="소유" style="text;html=1;align=center;verticalAlign=middle;resizable=0;points=[];autosize=1;strokeColor=none;fillColor=none;fontSize=16;" parent="1" vertex="1">
          <mxGeometry x="-1210" y="-210" width="60" height="30" as="geometry" />
        </mxCell>
        <mxCell id="nPpBzZ0UAAfFh9ZcZdgi-16" value="소유자" style="text;html=1;align=center;verticalAlign=middle;resizable=0;points=[];autosize=1;strokeColor=none;fillColor=none;fontSize=16;" parent="1" vertex="1">
          <mxGeometry x="-1290" y="-190" width="70" height="30" as="geometry" />
        </mxCell>
        <mxCell id="nPpBzZ0UAAfFh9ZcZdgi-17" value="소유물" style="text;html=1;align=center;verticalAlign=middle;resizable=0;points=[];autosize=1;strokeColor=none;fillColor=none;fontSize=16;" parent="1" vertex="1">
          <mxGeometry x="-1150" y="-190" width="70" height="30" as="geometry" />
        </mxCell>
        <mxCell id="nPpBzZ0UAAfFh9ZcZdgi-19" value="0...*" style="text;html=1;align=center;verticalAlign=middle;resizable=0;points=[];autosize=1;strokeColor=none;fillColor=none;fontSize=16;" parent="1" vertex="1">
          <mxGeometry x="-1280" y="-160" width="50" height="30" as="geometry" />
        </mxCell>
        <mxCell id="nPpBzZ0UAAfFh9ZcZdgi-20" value="사람은 차량을 소유하지 않거나&amp;nbsp;&lt;div&gt;여러대를 소유할 수있다라는 의미&lt;/div&gt;" style="text;html=1;align=center;verticalAlign=middle;resizable=0;points=[];autosize=1;strokeColor=none;fillColor=none;fontSize=7;" parent="1" vertex="1">
          <mxGeometry x="-1320" y="-114" width="130" height="30" as="geometry" />
        </mxCell>
        <mxCell id="nPpBzZ0UAAfFh9ZcZdgi-21" value="1...*" style="text;html=1;align=center;verticalAlign=middle;resizable=0;points=[];autosize=1;strokeColor=none;fillColor=none;fontSize=16;" parent="1" vertex="1">
          <mxGeometry x="-1130" y="-160" width="50" height="30" as="geometry" />
        </mxCell>
        <mxCell id="nPpBzZ0UAAfFh9ZcZdgi-22" value="[연관]사람이 컴퓨터를 구매한다" style="text;html=1;align=center;verticalAlign=middle;whiteSpace=wrap;rounded=0;" parent="1" vertex="1">
          <mxGeometry x="-1440" y="-50" width="180" height="30" as="geometry" />
        </mxCell>
        <mxCell id="nPpBzZ0UAAfFh9ZcZdgi-23" value="Person" style="swimlane;fontStyle=1;align=center;verticalAlign=top;childLayout=stackLayout;horizontal=1;startSize=26;horizontalStack=0;resizeParent=1;resizeParentMax=0;resizeLast=0;collapsible=1;marginBottom=0;whiteSpace=wrap;html=1;" parent="1" vertex="1">
          <mxGeometry x="-1440" width="160" height="86" as="geometry" />
        </mxCell>
        <mxCell id="nPpBzZ0UAAfFh9ZcZdgi-24" value="+ field: type" style="text;strokeColor=none;fillColor=none;align=left;verticalAlign=top;spacingLeft=4;spacingRight=4;overflow=hidden;rotatable=0;points=[[0,0.5],[1,0.5]];portConstraint=eastwest;whiteSpace=wrap;html=1;" parent="nPpBzZ0UAAfFh9ZcZdgi-23" vertex="1">
          <mxGeometry y="26" width="160" height="26" as="geometry" />
        </mxCell>
        <mxCell id="nPpBzZ0UAAfFh9ZcZdgi-25" value="" style="line;strokeWidth=1;fillColor=none;align=left;verticalAlign=middle;spacingTop=-1;spacingLeft=3;spacingRight=3;rotatable=0;labelPosition=right;points=[];portConstraint=eastwest;strokeColor=inherit;" parent="nPpBzZ0UAAfFh9ZcZdgi-23" vertex="1">
          <mxGeometry y="52" width="160" height="8" as="geometry" />
        </mxCell>
        <mxCell id="nPpBzZ0UAAfFh9ZcZdgi-26" value="+ method(type): type" style="text;strokeColor=none;fillColor=none;align=left;verticalAlign=top;spacingLeft=4;spacingRight=4;overflow=hidden;rotatable=0;points=[[0,0.5],[1,0.5]];portConstraint=eastwest;whiteSpace=wrap;html=1;" parent="nPpBzZ0UAAfFh9ZcZdgi-23" vertex="1">
          <mxGeometry y="60" width="160" height="26" as="geometry" />
        </mxCell>
        <mxCell id="nPpBzZ0UAAfFh9ZcZdgi-27" value="Computer" style="swimlane;fontStyle=1;align=center;verticalAlign=top;childLayout=stackLayout;horizontal=1;startSize=26;horizontalStack=0;resizeParent=1;resizeParentMax=0;resizeLast=0;collapsible=1;marginBottom=0;whiteSpace=wrap;html=1;" parent="1" vertex="1">
          <mxGeometry x="-1080" width="160" height="86" as="geometry" />
        </mxCell>
        <mxCell id="nPpBzZ0UAAfFh9ZcZdgi-28" value="+ field: type" style="text;strokeColor=none;fillColor=none;align=left;verticalAlign=top;spacingLeft=4;spacingRight=4;overflow=hidden;rotatable=0;points=[[0,0.5],[1,0.5]];portConstraint=eastwest;whiteSpace=wrap;html=1;" parent="nPpBzZ0UAAfFh9ZcZdgi-27" vertex="1">
          <mxGeometry y="26" width="160" height="26" as="geometry" />
        </mxCell>
        <mxCell id="nPpBzZ0UAAfFh9ZcZdgi-29" value="" style="line;strokeWidth=1;fillColor=none;align=left;verticalAlign=middle;spacingTop=-1;spacingLeft=3;spacingRight=3;rotatable=0;labelPosition=right;points=[];portConstraint=eastwest;strokeColor=inherit;" parent="nPpBzZ0UAAfFh9ZcZdgi-27" vertex="1">
          <mxGeometry y="52" width="160" height="8" as="geometry" />
        </mxCell>
        <mxCell id="nPpBzZ0UAAfFh9ZcZdgi-30" value="+ method(type): type" style="text;strokeColor=none;fillColor=none;align=left;verticalAlign=top;spacingLeft=4;spacingRight=4;overflow=hidden;rotatable=0;points=[[0,0.5],[1,0.5]];portConstraint=eastwest;whiteSpace=wrap;html=1;" parent="nPpBzZ0UAAfFh9ZcZdgi-27" vertex="1">
          <mxGeometry y="60" width="160" height="26" as="geometry" />
        </mxCell>
        <mxCell id="nPpBzZ0UAAfFh9ZcZdgi-31" style="edgeStyle=none;curved=1;rounded=0;orthogonalLoop=1;jettySize=auto;html=1;entryX=-0.019;entryY=0.699;entryDx=0;entryDy=0;entryPerimeter=0;fontSize=12;startSize=8;endSize=8;" parent="1" source="nPpBzZ0UAAfFh9ZcZdgi-23" target="nPpBzZ0UAAfFh9ZcZdgi-28" edge="1">
          <mxGeometry relative="1" as="geometry" />
        </mxCell>
        <mxCell id="nPpBzZ0UAAfFh9ZcZdgi-32" value="구매" style="text;html=1;align=center;verticalAlign=middle;resizable=0;points=[];autosize=1;strokeColor=none;fillColor=none;fontSize=16;" parent="1" vertex="1">
          <mxGeometry x="-1210" y="-9" width="60" height="30" as="geometry" />
        </mxCell>
        <mxCell id="nPpBzZ0UAAfFh9ZcZdgi-33" value="구매자" style="text;html=1;align=center;verticalAlign=middle;resizable=0;points=[];autosize=1;strokeColor=none;fillColor=none;fontSize=16;" parent="1" vertex="1">
          <mxGeometry x="-1290" y="10" width="70" height="30" as="geometry" />
        </mxCell>
        <mxCell id="nPpBzZ0UAAfFh9ZcZdgi-34" value="상품" style="text;html=1;align=center;verticalAlign=middle;resizable=0;points=[];autosize=1;strokeColor=none;fillColor=none;fontSize=16;" parent="1" vertex="1">
          <mxGeometry x="-1145" y="10" width="60" height="30" as="geometry" />
        </mxCell>
        <mxCell id="nPpBzZ0UAAfFh9ZcZdgi-35" value="* 사람과 자동차, 사람과 컴퓨터는 class&lt;div&gt;&lt;br&gt;&lt;/div&gt;" style="text;html=1;align=center;verticalAlign=middle;resizable=0;points=[];autosize=1;strokeColor=none;fillColor=none;fontSize=11;" parent="1" vertex="1">
          <mxGeometry x="-1440" y="-280" width="210" height="40" as="geometry" />
        </mxCell>
        <mxCell id="nPpBzZ0UAAfFh9ZcZdgi-36" value="0...*" style="text;html=1;align=center;verticalAlign=middle;resizable=0;points=[];autosize=1;strokeColor=none;fillColor=none;fontSize=16;" parent="1" vertex="1">
          <mxGeometry x="-1280" y="40" width="50" height="30" as="geometry" />
        </mxCell>
        <mxCell id="nPpBzZ0UAAfFh9ZcZdgi-37" value="0,1" style="text;html=1;align=center;verticalAlign=middle;resizable=0;points=[];autosize=1;strokeColor=none;fillColor=none;fontSize=16;" parent="1" vertex="1">
          <mxGeometry x="-1135" y="40" width="50" height="30" as="geometry" />
        </mxCell>
        <mxCell id="nPpBzZ0UAAfFh9ZcZdgi-38" value="[연관]학생이 수업에 수강신청을 하다" style="text;html=1;align=center;verticalAlign=middle;whiteSpace=wrap;rounded=0;" parent="1" vertex="1">
          <mxGeometry x="-1440" y="140" width="200" height="30" as="geometry" />
        </mxCell>
        <mxCell id="nPpBzZ0UAAfFh9ZcZdgi-39" value="Student" style="swimlane;fontStyle=1;align=center;verticalAlign=top;childLayout=stackLayout;horizontal=1;startSize=26;horizontalStack=0;resizeParent=1;resizeParentMax=0;resizeLast=0;collapsible=1;marginBottom=0;whiteSpace=wrap;html=1;" parent="1" vertex="1">
          <mxGeometry x="-1440" y="190" width="160" height="86" as="geometry" />
        </mxCell>
        <mxCell id="nPpBzZ0UAAfFh9ZcZdgi-40" value="+ field: type" style="text;strokeColor=none;fillColor=none;align=left;verticalAlign=top;spacingLeft=4;spacingRight=4;overflow=hidden;rotatable=0;points=[[0,0.5],[1,0.5]];portConstraint=eastwest;whiteSpace=wrap;html=1;" parent="nPpBzZ0UAAfFh9ZcZdgi-39" vertex="1">
          <mxGeometry y="26" width="160" height="26" as="geometry" />
        </mxCell>
        <mxCell id="nPpBzZ0UAAfFh9ZcZdgi-41" value="" style="line;strokeWidth=1;fillColor=none;align=left;verticalAlign=middle;spacingTop=-1;spacingLeft=3;spacingRight=3;rotatable=0;labelPosition=right;points=[];portConstraint=eastwest;strokeColor=inherit;" parent="nPpBzZ0UAAfFh9ZcZdgi-39" vertex="1">
          <mxGeometry y="52" width="160" height="8" as="geometry" />
        </mxCell>
        <mxCell id="nPpBzZ0UAAfFh9ZcZdgi-42" value="+ method(type): type" style="text;strokeColor=none;fillColor=none;align=left;verticalAlign=top;spacingLeft=4;spacingRight=4;overflow=hidden;rotatable=0;points=[[0,0.5],[1,0.5]];portConstraint=eastwest;whiteSpace=wrap;html=1;" parent="nPpBzZ0UAAfFh9ZcZdgi-39" vertex="1">
          <mxGeometry y="60" width="160" height="26" as="geometry" />
        </mxCell>
        <mxCell id="nPpBzZ0UAAfFh9ZcZdgi-43" value="Lecture" style="swimlane;fontStyle=1;align=center;verticalAlign=top;childLayout=stackLayout;horizontal=1;startSize=26;horizontalStack=0;resizeParent=1;resizeParentMax=0;resizeLast=0;collapsible=1;marginBottom=0;whiteSpace=wrap;html=1;" parent="1" vertex="1">
          <mxGeometry x="-1080" y="190" width="160" height="86" as="geometry" />
        </mxCell>
        <mxCell id="nPpBzZ0UAAfFh9ZcZdgi-44" value="+ field: type" style="text;strokeColor=none;fillColor=none;align=left;verticalAlign=top;spacingLeft=4;spacingRight=4;overflow=hidden;rotatable=0;points=[[0,0.5],[1,0.5]];portConstraint=eastwest;whiteSpace=wrap;html=1;" parent="nPpBzZ0UAAfFh9ZcZdgi-43" vertex="1">
          <mxGeometry y="26" width="160" height="26" as="geometry" />
        </mxCell>
        <mxCell id="nPpBzZ0UAAfFh9ZcZdgi-45" value="" style="line;strokeWidth=1;fillColor=none;align=left;verticalAlign=middle;spacingTop=-1;spacingLeft=3;spacingRight=3;rotatable=0;labelPosition=right;points=[];portConstraint=eastwest;strokeColor=inherit;" parent="nPpBzZ0UAAfFh9ZcZdgi-43" vertex="1">
          <mxGeometry y="52" width="160" height="8" as="geometry" />
        </mxCell>
        <mxCell id="nPpBzZ0UAAfFh9ZcZdgi-46" value="+ method(type): type" style="text;strokeColor=none;fillColor=none;align=left;verticalAlign=top;spacingLeft=4;spacingRight=4;overflow=hidden;rotatable=0;points=[[0,0.5],[1,0.5]];portConstraint=eastwest;whiteSpace=wrap;html=1;" parent="nPpBzZ0UAAfFh9ZcZdgi-43" vertex="1">
          <mxGeometry y="60" width="160" height="26" as="geometry" />
        </mxCell>
        <mxCell id="nPpBzZ0UAAfFh9ZcZdgi-47" style="edgeStyle=none;curved=1;rounded=0;orthogonalLoop=1;jettySize=auto;html=1;entryX=-0.019;entryY=0.699;entryDx=0;entryDy=0;entryPerimeter=0;fontSize=12;startSize=8;endSize=8;" parent="1" source="nPpBzZ0UAAfFh9ZcZdgi-39" target="nPpBzZ0UAAfFh9ZcZdgi-44" edge="1">
          <mxGeometry relative="1" as="geometry" />
        </mxCell>
        <mxCell id="nPpBzZ0UAAfFh9ZcZdgi-48" value="수강신청" style="text;html=1;align=center;verticalAlign=middle;resizable=0;points=[];autosize=1;strokeColor=none;fillColor=none;fontSize=16;" parent="1" vertex="1">
          <mxGeometry x="-1225" y="181" width="90" height="30" as="geometry" />
        </mxCell>
        <mxCell id="nPpBzZ0UAAfFh9ZcZdgi-49" value="수강생" style="text;html=1;align=center;verticalAlign=middle;resizable=0;points=[];autosize=1;strokeColor=none;fillColor=none;fontSize=16;" parent="1" vertex="1">
          <mxGeometry x="-1290" y="200" width="70" height="30" as="geometry" />
        </mxCell>
        <mxCell id="nPpBzZ0UAAfFh9ZcZdgi-50" value="수업" style="text;html=1;align=center;verticalAlign=middle;resizable=0;points=[];autosize=1;strokeColor=none;fillColor=none;fontSize=16;" parent="1" vertex="1">
          <mxGeometry x="-1145" y="200" width="60" height="30" as="geometry" />
        </mxCell>
        <mxCell id="nPpBzZ0UAAfFh9ZcZdgi-51" value="0...*" style="text;html=1;align=center;verticalAlign=middle;resizable=0;points=[];autosize=1;strokeColor=none;fillColor=none;fontSize=16;" parent="1" vertex="1">
          <mxGeometry x="-1280" y="230" width="50" height="30" as="geometry" />
        </mxCell>
        <mxCell id="nPpBzZ0UAAfFh9ZcZdgi-52" value="0...*" style="text;html=1;align=center;verticalAlign=middle;resizable=0;points=[];autosize=1;strokeColor=none;fillColor=none;fontSize=16;" parent="1" vertex="1">
          <mxGeometry x="-1135" y="230" width="50" height="30" as="geometry" />
        </mxCell>
        <mxCell id="SbO5sFWPzO93ilvdZSw4-16" value="Customer" style="swimlane;fontStyle=1;align=center;verticalAlign=top;childLayout=stackLayout;horizontal=1;startSize=26;horizontalStack=0;resizeParent=1;resizeParentMax=0;resizeLast=0;collapsible=1;marginBottom=0;whiteSpace=wrap;html=1;" vertex="1" parent="1">
          <mxGeometry x="-1440" y="389" width="160" height="86" as="geometry" />
        </mxCell>
        <mxCell id="SbO5sFWPzO93ilvdZSw4-17" value="+ field: type" style="text;strokeColor=none;fillColor=none;align=left;verticalAlign=top;spacingLeft=4;spacingRight=4;overflow=hidden;rotatable=0;points=[[0,0.5],[1,0.5]];portConstraint=eastwest;whiteSpace=wrap;html=1;" vertex="1" parent="SbO5sFWPzO93ilvdZSw4-16">
          <mxGeometry y="26" width="160" height="26" as="geometry" />
        </mxCell>
        <mxCell id="SbO5sFWPzO93ilvdZSw4-18" value="" style="line;strokeWidth=1;fillColor=none;align=left;verticalAlign=middle;spacingTop=-1;spacingLeft=3;spacingRight=3;rotatable=0;labelPosition=right;points=[];portConstraint=eastwest;strokeColor=inherit;" vertex="1" parent="SbO5sFWPzO93ilvdZSw4-16">
          <mxGeometry y="52" width="160" height="8" as="geometry" />
        </mxCell>
        <mxCell id="SbO5sFWPzO93ilvdZSw4-19" value="+ method(type): type" style="text;strokeColor=none;fillColor=none;align=left;verticalAlign=top;spacingLeft=4;spacingRight=4;overflow=hidden;rotatable=0;points=[[0,0.5],[1,0.5]];portConstraint=eastwest;whiteSpace=wrap;html=1;" vertex="1" parent="SbO5sFWPzO93ilvdZSw4-16">
          <mxGeometry y="60" width="160" height="26" as="geometry" />
        </mxCell>
        <mxCell id="SbO5sFWPzO93ilvdZSw4-20" value="prodect" style="swimlane;fontStyle=1;align=center;verticalAlign=top;childLayout=stackLayout;horizontal=1;startSize=26;horizontalStack=0;resizeParent=1;resizeParentMax=0;resizeLast=0;collapsible=1;marginBottom=0;whiteSpace=wrap;html=1;" vertex="1" parent="1">
          <mxGeometry x="-1080" y="389" width="160" height="86" as="geometry" />
        </mxCell>
        <mxCell id="SbO5sFWPzO93ilvdZSw4-21" value="+ field: type" style="text;strokeColor=none;fillColor=none;align=left;verticalAlign=top;spacingLeft=4;spacingRight=4;overflow=hidden;rotatable=0;points=[[0,0.5],[1,0.5]];portConstraint=eastwest;whiteSpace=wrap;html=1;" vertex="1" parent="SbO5sFWPzO93ilvdZSw4-20">
          <mxGeometry y="26" width="160" height="26" as="geometry" />
        </mxCell>
        <mxCell id="SbO5sFWPzO93ilvdZSw4-22" value="" style="line;strokeWidth=1;fillColor=none;align=left;verticalAlign=middle;spacingTop=-1;spacingLeft=3;spacingRight=3;rotatable=0;labelPosition=right;points=[];portConstraint=eastwest;strokeColor=inherit;" vertex="1" parent="SbO5sFWPzO93ilvdZSw4-20">
          <mxGeometry y="52" width="160" height="8" as="geometry" />
        </mxCell>
        <mxCell id="SbO5sFWPzO93ilvdZSw4-23" value="+ method(type): type" style="text;strokeColor=none;fillColor=none;align=left;verticalAlign=top;spacingLeft=4;spacingRight=4;overflow=hidden;rotatable=0;points=[[0,0.5],[1,0.5]];portConstraint=eastwest;whiteSpace=wrap;html=1;" vertex="1" parent="SbO5sFWPzO93ilvdZSw4-20">
          <mxGeometry y="60" width="160" height="26" as="geometry" />
        </mxCell>
        <mxCell id="SbO5sFWPzO93ilvdZSw4-24" style="edgeStyle=none;curved=1;rounded=0;orthogonalLoop=1;jettySize=auto;html=1;entryX=-0.019;entryY=0.699;entryDx=0;entryDy=0;entryPerimeter=0;fontSize=12;startSize=8;endSize=8;" edge="1" parent="1" source="SbO5sFWPzO93ilvdZSw4-16" target="SbO5sFWPzO93ilvdZSw4-21">
          <mxGeometry relative="1" as="geometry" />
        </mxCell>
        <mxCell id="SbO5sFWPzO93ilvdZSw4-25" value="구매" style="text;html=1;align=center;verticalAlign=middle;resizable=0;points=[];autosize=1;strokeColor=none;fillColor=none;fontSize=16;" vertex="1" parent="1">
          <mxGeometry x="-1210" y="380" width="60" height="30" as="geometry" />
        </mxCell>
        <mxCell id="SbO5sFWPzO93ilvdZSw4-26" value="구매자" style="text;html=1;align=center;verticalAlign=middle;resizable=0;points=[];autosize=1;strokeColor=none;fillColor=none;fontSize=16;" vertex="1" parent="1">
          <mxGeometry x="-1290" y="399" width="70" height="30" as="geometry" />
        </mxCell>
        <mxCell id="SbO5sFWPzO93ilvdZSw4-27" value="물품" style="text;html=1;align=center;verticalAlign=middle;resizable=0;points=[];autosize=1;strokeColor=none;fillColor=none;fontSize=16;" vertex="1" parent="1">
          <mxGeometry x="-1145" y="399" width="60" height="30" as="geometry" />
        </mxCell>
        <mxCell id="SbO5sFWPzO93ilvdZSw4-28" value="0...*" style="text;html=1;align=center;verticalAlign=middle;resizable=0;points=[];autosize=1;strokeColor=none;fillColor=none;fontSize=16;" vertex="1" parent="1">
          <mxGeometry x="-1280" y="429" width="50" height="30" as="geometry" />
        </mxCell>
        <mxCell id="SbO5sFWPzO93ilvdZSw4-29" value="0...*" style="text;html=1;align=center;verticalAlign=middle;resizable=0;points=[];autosize=1;strokeColor=none;fillColor=none;fontSize=16;" vertex="1" parent="1">
          <mxGeometry x="-1135" y="429" width="50" height="30" as="geometry" />
        </mxCell>
        <mxCell id="SbO5sFWPzO93ilvdZSw4-30" value="[연관]고객이 제품을 구매한다." style="text;html=1;align=center;verticalAlign=middle;whiteSpace=wrap;rounded=0;" vertex="1" parent="1">
          <mxGeometry x="-1460" y="340" width="200" height="30" as="geometry" />
        </mxCell>
        <mxCell id="SbO5sFWPzO93ilvdZSw4-31" value="Customer" style="swimlane;fontStyle=1;align=center;verticalAlign=top;childLayout=stackLayout;horizontal=1;startSize=26;horizontalStack=0;resizeParent=1;resizeParentMax=0;resizeLast=0;collapsible=1;marginBottom=0;whiteSpace=wrap;html=1;" vertex="1" parent="1">
          <mxGeometry x="-1440" y="500" width="160" height="86" as="geometry" />
        </mxCell>
        <mxCell id="SbO5sFWPzO93ilvdZSw4-32" value="+ field: type" style="text;strokeColor=none;fillColor=none;align=left;verticalAlign=top;spacingLeft=4;spacingRight=4;overflow=hidden;rotatable=0;points=[[0,0.5],[1,0.5]];portConstraint=eastwest;whiteSpace=wrap;html=1;" vertex="1" parent="SbO5sFWPzO93ilvdZSw4-31">
          <mxGeometry y="26" width="160" height="26" as="geometry" />
        </mxCell>
        <mxCell id="SbO5sFWPzO93ilvdZSw4-33" value="" style="line;strokeWidth=1;fillColor=none;align=left;verticalAlign=middle;spacingTop=-1;spacingLeft=3;spacingRight=3;rotatable=0;labelPosition=right;points=[];portConstraint=eastwest;strokeColor=inherit;" vertex="1" parent="SbO5sFWPzO93ilvdZSw4-31">
          <mxGeometry y="52" width="160" height="8" as="geometry" />
        </mxCell>
        <mxCell id="SbO5sFWPzO93ilvdZSw4-34" value="+ method(type): type" style="text;strokeColor=none;fillColor=none;align=left;verticalAlign=top;spacingLeft=4;spacingRight=4;overflow=hidden;rotatable=0;points=[[0,0.5],[1,0.5]];portConstraint=eastwest;whiteSpace=wrap;html=1;" vertex="1" parent="SbO5sFWPzO93ilvdZSw4-31">
          <mxGeometry y="60" width="160" height="26" as="geometry" />
        </mxCell>
        <mxCell id="SbO5sFWPzO93ilvdZSw4-35" value="order" style="swimlane;fontStyle=1;align=center;verticalAlign=top;childLayout=stackLayout;horizontal=1;startSize=26;horizontalStack=0;resizeParent=1;resizeParentMax=0;resizeLast=0;collapsible=1;marginBottom=0;whiteSpace=wrap;html=1;" vertex="1" parent="1">
          <mxGeometry x="-1080" y="500" width="160" height="86" as="geometry" />
        </mxCell>
        <mxCell id="SbO5sFWPzO93ilvdZSw4-36" value="+ field: type" style="text;strokeColor=none;fillColor=none;align=left;verticalAlign=top;spacingLeft=4;spacingRight=4;overflow=hidden;rotatable=0;points=[[0,0.5],[1,0.5]];portConstraint=eastwest;whiteSpace=wrap;html=1;" vertex="1" parent="SbO5sFWPzO93ilvdZSw4-35">
          <mxGeometry y="26" width="160" height="26" as="geometry" />
        </mxCell>
        <mxCell id="SbO5sFWPzO93ilvdZSw4-37" value="" style="line;strokeWidth=1;fillColor=none;align=left;verticalAlign=middle;spacingTop=-1;spacingLeft=3;spacingRight=3;rotatable=0;labelPosition=right;points=[];portConstraint=eastwest;strokeColor=inherit;" vertex="1" parent="SbO5sFWPzO93ilvdZSw4-35">
          <mxGeometry y="52" width="160" height="8" as="geometry" />
        </mxCell>
        <mxCell id="SbO5sFWPzO93ilvdZSw4-38" value="+ method(type): type" style="text;strokeColor=none;fillColor=none;align=left;verticalAlign=top;spacingLeft=4;spacingRight=4;overflow=hidden;rotatable=0;points=[[0,0.5],[1,0.5]];portConstraint=eastwest;whiteSpace=wrap;html=1;" vertex="1" parent="SbO5sFWPzO93ilvdZSw4-35">
          <mxGeometry y="60" width="160" height="26" as="geometry" />
        </mxCell>
        <mxCell id="SbO5sFWPzO93ilvdZSw4-40" style="edgeStyle=none;curved=1;rounded=0;orthogonalLoop=1;jettySize=auto;html=1;entryX=0;entryY=0.5;entryDx=0;entryDy=0;fontSize=12;startSize=8;endSize=8;endArrow=none;startFill=0;" edge="1" parent="1" source="SbO5sFWPzO93ilvdZSw4-32" target="SbO5sFWPzO93ilvdZSw4-36">
          <mxGeometry relative="1" as="geometry" />
        </mxCell>
        <mxCell id="SbO5sFWPzO93ilvdZSw4-41" value="Product" style="swimlane;fontStyle=1;align=center;verticalAlign=top;childLayout=stackLayout;horizontal=1;startSize=26;horizontalStack=0;resizeParent=1;resizeParentMax=0;resizeLast=0;collapsible=1;marginBottom=0;whiteSpace=wrap;html=1;" vertex="1" parent="1">
          <mxGeometry x="-750" y="500" width="160" height="86" as="geometry" />
        </mxCell>
        <mxCell id="SbO5sFWPzO93ilvdZSw4-42" value="+ field: type" style="text;strokeColor=none;fillColor=none;align=left;verticalAlign=top;spacingLeft=4;spacingRight=4;overflow=hidden;rotatable=0;points=[[0,0.5],[1,0.5]];portConstraint=eastwest;whiteSpace=wrap;html=1;" vertex="1" parent="SbO5sFWPzO93ilvdZSw4-41">
          <mxGeometry y="26" width="160" height="26" as="geometry" />
        </mxCell>
        <mxCell id="SbO5sFWPzO93ilvdZSw4-43" value="" style="line;strokeWidth=1;fillColor=none;align=left;verticalAlign=middle;spacingTop=-1;spacingLeft=3;spacingRight=3;rotatable=0;labelPosition=right;points=[];portConstraint=eastwest;strokeColor=inherit;" vertex="1" parent="SbO5sFWPzO93ilvdZSw4-41">
          <mxGeometry y="52" width="160" height="8" as="geometry" />
        </mxCell>
        <mxCell id="SbO5sFWPzO93ilvdZSw4-44" value="+ method(type): type" style="text;strokeColor=none;fillColor=none;align=left;verticalAlign=top;spacingLeft=4;spacingRight=4;overflow=hidden;rotatable=0;points=[[0,0.5],[1,0.5]];portConstraint=eastwest;whiteSpace=wrap;html=1;" vertex="1" parent="SbO5sFWPzO93ilvdZSw4-41">
          <mxGeometry y="60" width="160" height="26" as="geometry" />
        </mxCell>
        <mxCell id="SbO5sFWPzO93ilvdZSw4-45" style="edgeStyle=none;curved=1;rounded=0;orthogonalLoop=1;jettySize=auto;html=1;entryX=0;entryY=0.5;entryDx=0;entryDy=0;fontSize=12;startSize=8;endSize=8;endArrow=none;startFill=0;" edge="1" parent="1" source="SbO5sFWPzO93ilvdZSw4-36" target="SbO5sFWPzO93ilvdZSw4-42">
          <mxGeometry relative="1" as="geometry" />
        </mxCell>
        <mxCell id="SbO5sFWPzO93ilvdZSw4-46" value="1" style="text;html=1;align=center;verticalAlign=middle;resizable=0;points=[];autosize=1;strokeColor=none;fillColor=none;fontSize=16;" vertex="1" parent="1">
          <mxGeometry x="-1270" y="540" width="30" height="30" as="geometry" />
        </mxCell>
        <mxCell id="SbO5sFWPzO93ilvdZSw4-47" value="0...*" style="text;html=1;align=center;verticalAlign=middle;resizable=0;points=[];autosize=1;strokeColor=none;fillColor=none;fontSize=16;" vertex="1" parent="1">
          <mxGeometry x="-1130" y="540" width="50" height="30" as="geometry" />
        </mxCell>
        <mxCell id="SbO5sFWPzO93ilvdZSw4-48" value="0...*" style="text;html=1;align=center;verticalAlign=middle;resizable=0;points=[];autosize=1;strokeColor=none;fillColor=none;fontSize=16;" vertex="1" parent="1">
          <mxGeometry x="-920" y="540" width="50" height="30" as="geometry" />
        </mxCell>
        <mxCell id="SbO5sFWPzO93ilvdZSw4-49" value="1" style="text;html=1;align=center;verticalAlign=middle;resizable=0;points=[];autosize=1;strokeColor=none;fillColor=none;fontSize=16;" vertex="1" parent="1">
          <mxGeometry x="-780" y="540" width="30" height="30" as="geometry" />
        </mxCell>
        <mxCell id="SbO5sFWPzO93ilvdZSw4-54" value="연관관계" style="shape=umlFrame;whiteSpace=wrap;html=1;pointerEvents=0;" vertex="1" parent="1">
          <mxGeometry x="-1460" y="-325" width="890" height="935" as="geometry" />
        </mxCell>
        <mxCell id="SbO5sFWPzO93ilvdZSw4-55" value="Person" style="swimlane;fontStyle=1;align=center;verticalAlign=top;childLayout=stackLayout;horizontal=1;startSize=26;horizontalStack=0;resizeParent=1;resizeParentMax=0;resizeLast=0;collapsible=1;marginBottom=0;whiteSpace=wrap;html=1;" vertex="1" parent="1">
          <mxGeometry x="-440" y="-210" width="160" height="86" as="geometry" />
        </mxCell>
        <mxCell id="SbO5sFWPzO93ilvdZSw4-56" value="+ field: type" style="text;strokeColor=none;fillColor=none;align=left;verticalAlign=top;spacingLeft=4;spacingRight=4;overflow=hidden;rotatable=0;points=[[0,0.5],[1,0.5]];portConstraint=eastwest;whiteSpace=wrap;html=1;" vertex="1" parent="SbO5sFWPzO93ilvdZSw4-55">
          <mxGeometry y="26" width="160" height="26" as="geometry" />
        </mxCell>
        <mxCell id="SbO5sFWPzO93ilvdZSw4-57" value="" style="line;strokeWidth=1;fillColor=none;align=left;verticalAlign=middle;spacingTop=-1;spacingLeft=3;spacingRight=3;rotatable=0;labelPosition=right;points=[];portConstraint=eastwest;strokeColor=inherit;" vertex="1" parent="SbO5sFWPzO93ilvdZSw4-55">
          <mxGeometry y="52" width="160" height="8" as="geometry" />
        </mxCell>
        <mxCell id="SbO5sFWPzO93ilvdZSw4-58" value="+ method(type): type" style="text;strokeColor=none;fillColor=none;align=left;verticalAlign=top;spacingLeft=4;spacingRight=4;overflow=hidden;rotatable=0;points=[[0,0.5],[1,0.5]];portConstraint=eastwest;whiteSpace=wrap;html=1;" vertex="1" parent="SbO5sFWPzO93ilvdZSw4-55">
          <mxGeometry y="60" width="160" height="26" as="geometry" />
        </mxCell>
        <mxCell id="SbO5sFWPzO93ilvdZSw4-59" value="[의존]사람이 자동차를 이용(의존)해서 이동한다." style="text;html=1;align=center;verticalAlign=middle;whiteSpace=wrap;rounded=0;" vertex="1" parent="1">
          <mxGeometry x="-460" y="-310" width="300" height="30" as="geometry" />
        </mxCell>
        <mxCell id="SbO5sFWPzO93ilvdZSw4-60" value="Car" style="swimlane;fontStyle=1;align=center;verticalAlign=top;childLayout=stackLayout;horizontal=1;startSize=26;horizontalStack=0;resizeParent=1;resizeParentMax=0;resizeLast=0;collapsible=1;marginBottom=0;whiteSpace=wrap;html=1;" vertex="1" parent="1">
          <mxGeometry x="-120" y="-210" width="160" height="86" as="geometry" />
        </mxCell>
        <mxCell id="SbO5sFWPzO93ilvdZSw4-61" value="+ field: type" style="text;strokeColor=none;fillColor=none;align=left;verticalAlign=top;spacingLeft=4;spacingRight=4;overflow=hidden;rotatable=0;points=[[0,0.5],[1,0.5]];portConstraint=eastwest;whiteSpace=wrap;html=1;" vertex="1" parent="SbO5sFWPzO93ilvdZSw4-60">
          <mxGeometry y="26" width="160" height="26" as="geometry" />
        </mxCell>
        <mxCell id="SbO5sFWPzO93ilvdZSw4-62" value="" style="line;strokeWidth=1;fillColor=none;align=left;verticalAlign=middle;spacingTop=-1;spacingLeft=3;spacingRight=3;rotatable=0;labelPosition=right;points=[];portConstraint=eastwest;strokeColor=inherit;" vertex="1" parent="SbO5sFWPzO93ilvdZSw4-60">
          <mxGeometry y="52" width="160" height="8" as="geometry" />
        </mxCell>
        <mxCell id="SbO5sFWPzO93ilvdZSw4-63" value="+ method(type): type" style="text;strokeColor=none;fillColor=none;align=left;verticalAlign=top;spacingLeft=4;spacingRight=4;overflow=hidden;rotatable=0;points=[[0,0.5],[1,0.5]];portConstraint=eastwest;whiteSpace=wrap;html=1;" vertex="1" parent="SbO5sFWPzO93ilvdZSw4-60">
          <mxGeometry y="60" width="160" height="26" as="geometry" />
        </mxCell>
        <mxCell id="SbO5sFWPzO93ilvdZSw4-64" style="edgeStyle=none;curved=1;rounded=0;orthogonalLoop=1;jettySize=auto;html=1;fontSize=12;startSize=8;endSize=8;entryX=0;entryY=0.731;entryDx=0;entryDy=0;entryPerimeter=0;dashed=1;" edge="1" parent="1" source="SbO5sFWPzO93ilvdZSw4-55" target="SbO5sFWPzO93ilvdZSw4-61">
          <mxGeometry relative="1" as="geometry">
            <mxPoint x="-120" y="-167" as="targetPoint" />
          </mxGeometry>
        </mxCell>
        <mxCell id="SbO5sFWPzO93ilvdZSw4-65" value="use" style="text;html=1;align=center;verticalAlign=middle;resizable=0;points=[];autosize=1;strokeColor=none;fillColor=none;fontSize=16;" vertex="1" parent="1">
          <mxGeometry x="-220" y="-182" width="50" height="30" as="geometry" />
        </mxCell>
        <mxCell id="SbO5sFWPzO93ilvdZSw4-67" value="Car" style="swimlane;fontStyle=1;align=center;verticalAlign=top;childLayout=stackLayout;horizontal=1;startSize=26;horizontalStack=0;resizeParent=1;resizeParentMax=0;resizeLast=0;collapsible=1;marginBottom=0;whiteSpace=wrap;html=1;" vertex="1" parent="1">
          <mxGeometry x="-440" y="140" width="200" height="140" as="geometry" />
        </mxCell>
        <mxCell id="SbO5sFWPzO93ilvdZSw4-68" value="&lt;span&gt;&lt;font style=&quot;color: rgb(255, 0, 0);&quot;&gt;+ radio: Rido&lt;/font&gt;&lt;/span&gt;&lt;div&gt;&lt;span&gt;&lt;font style=&quot;color: rgb(255, 0, 0);&quot;&gt;+포트1: 충전 Port&lt;/font&gt;&lt;/span&gt;&lt;/div&gt;" style="text;strokeColor=none;fillColor=none;align=left;verticalAlign=top;spacingLeft=4;spacingRight=4;overflow=hidden;rotatable=0;points=[[0,0.5],[1,0.5]];portConstraint=eastwest;whiteSpace=wrap;html=1;" vertex="1" parent="SbO5sFWPzO93ilvdZSw4-67">
          <mxGeometry y="26" width="200" height="34" as="geometry" />
        </mxCell>
        <mxCell id="SbO5sFWPzO93ilvdZSw4-69" value="" style="line;strokeWidth=1;fillColor=none;align=left;verticalAlign=middle;spacingTop=-1;spacingLeft=3;spacingRight=3;rotatable=0;labelPosition=right;points=[];portConstraint=eastwest;strokeColor=inherit;" vertex="1" parent="SbO5sFWPzO93ilvdZSw4-67">
          <mxGeometry y="60" width="200" height="8" as="geometry" />
        </mxCell>
        <mxCell id="SbO5sFWPzO93ilvdZSw4-70" value="+ Car(){&lt;div&gt;&amp;nbsp; &lt;font style=&quot;color: rgb(255, 42, 0);&quot;&gt;radio = new Radio&lt;/font&gt;&lt;font style=&quot;color: rgb(255, 12, 12);&quot;&gt;();&lt;/font&gt;&lt;div&gt;&amp;nbsp; &lt;font style=&quot;color: rgb(255, 16, 0);&quot;&gt;포트 1 = new 충전 Port();&lt;/font&gt;&lt;/div&gt;&lt;div&gt;}&lt;/div&gt;&lt;/div&gt;" style="text;strokeColor=none;fillColor=none;align=left;verticalAlign=top;spacingLeft=4;spacingRight=4;overflow=hidden;rotatable=0;points=[[0,0.5],[1,0.5]];portConstraint=eastwest;whiteSpace=wrap;html=1;" vertex="1" parent="SbO5sFWPzO93ilvdZSw4-67">
          <mxGeometry y="68" width="200" height="72" as="geometry" />
        </mxCell>
        <mxCell id="SbO5sFWPzO93ilvdZSw4-71" value="[집합]자동차에는 라디오장치가 포함된다." style="text;html=1;align=center;verticalAlign=middle;whiteSpace=wrap;rounded=0;" vertex="1" parent="1">
          <mxGeometry x="-440" y="90" width="230" height="30" as="geometry" />
        </mxCell>
        <mxCell id="SbO5sFWPzO93ilvdZSw4-72" value="Radio" style="swimlane;fontStyle=1;align=center;verticalAlign=top;childLayout=stackLayout;horizontal=1;startSize=26;horizontalStack=0;resizeParent=1;resizeParentMax=0;resizeLast=0;collapsible=1;marginBottom=0;whiteSpace=wrap;html=1;" vertex="1" parent="1">
          <mxGeometry x="10" y="167" width="160" height="86" as="geometry" />
        </mxCell>
        <mxCell id="SbO5sFWPzO93ilvdZSw4-73" value="+ field: type" style="text;strokeColor=none;fillColor=none;align=left;verticalAlign=top;spacingLeft=4;spacingRight=4;overflow=hidden;rotatable=0;points=[[0,0.5],[1,0.5]];portConstraint=eastwest;whiteSpace=wrap;html=1;" vertex="1" parent="SbO5sFWPzO93ilvdZSw4-72">
          <mxGeometry y="26" width="160" height="26" as="geometry" />
        </mxCell>
        <mxCell id="SbO5sFWPzO93ilvdZSw4-74" value="" style="line;strokeWidth=1;fillColor=none;align=left;verticalAlign=middle;spacingTop=-1;spacingLeft=3;spacingRight=3;rotatable=0;labelPosition=right;points=[];portConstraint=eastwest;strokeColor=inherit;" vertex="1" parent="SbO5sFWPzO93ilvdZSw4-72">
          <mxGeometry y="52" width="160" height="8" as="geometry" />
        </mxCell>
        <mxCell id="SbO5sFWPzO93ilvdZSw4-75" value="+ method(type): type" style="text;strokeColor=none;fillColor=none;align=left;verticalAlign=top;spacingLeft=4;spacingRight=4;overflow=hidden;rotatable=0;points=[[0,0.5],[1,0.5]];portConstraint=eastwest;whiteSpace=wrap;html=1;" vertex="1" parent="SbO5sFWPzO93ilvdZSw4-72">
          <mxGeometry y="60" width="160" height="26" as="geometry" />
        </mxCell>
        <mxCell id="SbO5sFWPzO93ilvdZSw4-76" style="edgeStyle=none;curved=1;rounded=0;orthogonalLoop=1;jettySize=auto;html=1;fontSize=12;startSize=8;endSize=8;entryX=0;entryY=0.731;entryDx=0;entryDy=0;entryPerimeter=0;startArrow=diamondThin;startFill=1;endArrow=none;" edge="1" parent="1" source="SbO5sFWPzO93ilvdZSw4-67" target="SbO5sFWPzO93ilvdZSw4-73">
          <mxGeometry relative="1" as="geometry">
            <mxPoint x="-120" y="183" as="targetPoint" />
          </mxGeometry>
        </mxCell>
        <mxCell id="SbO5sFWPzO93ilvdZSw4-87" style="edgeStyle=none;curved=1;rounded=0;orthogonalLoop=1;jettySize=auto;html=1;fontSize=12;startSize=8;endSize=8;endArrow=diamondThin;endFill=1;" edge="1" parent="1" source="SbO5sFWPzO93ilvdZSw4-79" target="SbO5sFWPzO93ilvdZSw4-70">
          <mxGeometry relative="1" as="geometry" />
        </mxCell>
        <mxCell id="SbO5sFWPzO93ilvdZSw4-79" value="충전 Port" style="swimlane;fontStyle=1;align=center;verticalAlign=top;childLayout=stackLayout;horizontal=1;startSize=26;horizontalStack=0;resizeParent=1;resizeParentMax=0;resizeLast=0;collapsible=1;marginBottom=0;whiteSpace=wrap;html=1;" vertex="1" parent="1">
          <mxGeometry x="-440" y="444" width="200" height="140" as="geometry" />
        </mxCell>
        <mxCell id="SbO5sFWPzO93ilvdZSw4-80" value="&lt;font style=&quot;color: rgb(255, 7, 7);&quot;&gt;+ phone: Phone&lt;/font&gt;" style="text;strokeColor=none;fillColor=none;align=left;verticalAlign=top;spacingLeft=4;spacingRight=4;overflow=hidden;rotatable=0;points=[[0,0.5],[1,0.5]];portConstraint=eastwest;whiteSpace=wrap;html=1;" vertex="1" parent="SbO5sFWPzO93ilvdZSw4-79">
          <mxGeometry y="26" width="200" height="26" as="geometry" />
        </mxCell>
        <mxCell id="SbO5sFWPzO93ilvdZSw4-81" value="" style="line;strokeWidth=1;fillColor=none;align=left;verticalAlign=middle;spacingTop=-1;spacingLeft=3;spacingRight=3;rotatable=0;labelPosition=right;points=[];portConstraint=eastwest;strokeColor=inherit;" vertex="1" parent="SbO5sFWPzO93ilvdZSw4-79">
          <mxGeometry y="52" width="200" height="8" as="geometry" />
        </mxCell>
        <mxCell id="SbO5sFWPzO93ilvdZSw4-82" value="&lt;font&gt;+ connect(&lt;font style=&quot;color: rgb(255, 0, 0);&quot;&gt;Phone phone&lt;/font&gt;): void&lt;/font&gt;&lt;div&gt;&lt;font&gt;{&lt;/font&gt;&lt;/div&gt;&lt;div&gt;&lt;font style=&quot;color: rgb(255, 42, 0);&quot;&gt;this.phone = phone;&lt;/font&gt;&lt;/div&gt;&lt;div&gt;&lt;font&gt;}&lt;/font&gt;&lt;/div&gt;" style="text;strokeColor=none;fillColor=none;align=left;verticalAlign=top;spacingLeft=4;spacingRight=4;overflow=hidden;rotatable=0;points=[[0,0.5],[1,0.5]];portConstraint=eastwest;whiteSpace=wrap;html=1;" vertex="1" parent="SbO5sFWPzO93ilvdZSw4-79">
          <mxGeometry y="60" width="200" height="80" as="geometry" />
        </mxCell>
        <mxCell id="SbO5sFWPzO93ilvdZSw4-88" value="Phone" style="swimlane;fontStyle=1;align=center;verticalAlign=top;childLayout=stackLayout;horizontal=1;startSize=26;horizontalStack=0;resizeParent=1;resizeParentMax=0;resizeLast=0;collapsible=1;marginBottom=0;whiteSpace=wrap;html=1;" vertex="1" parent="1">
          <mxGeometry x="-80" y="440" width="200" height="86" as="geometry" />
        </mxCell>
        <mxCell id="SbO5sFWPzO93ilvdZSw4-89" value="&lt;span&gt;&lt;font style=&quot;color: rgb(0, 0, 0);&quot;&gt;+ field : type&lt;/font&gt;&lt;/span&gt;" style="text;strokeColor=none;fillColor=none;align=left;verticalAlign=top;spacingLeft=4;spacingRight=4;overflow=hidden;rotatable=0;points=[[0,0.5],[1,0.5]];portConstraint=eastwest;whiteSpace=wrap;html=1;" vertex="1" parent="SbO5sFWPzO93ilvdZSw4-88">
          <mxGeometry y="26" width="200" height="26" as="geometry" />
        </mxCell>
        <mxCell id="SbO5sFWPzO93ilvdZSw4-90" value="" style="line;strokeWidth=1;fillColor=none;align=left;verticalAlign=middle;spacingTop=-1;spacingLeft=3;spacingRight=3;rotatable=0;labelPosition=right;points=[];portConstraint=eastwest;strokeColor=inherit;" vertex="1" parent="SbO5sFWPzO93ilvdZSw4-88">
          <mxGeometry y="52" width="200" height="8" as="geometry" />
        </mxCell>
        <mxCell id="SbO5sFWPzO93ilvdZSw4-91" value="&lt;font&gt;+ method(type):type&lt;/font&gt;" style="text;strokeColor=none;fillColor=none;align=left;verticalAlign=top;spacingLeft=4;spacingRight=4;overflow=hidden;rotatable=0;points=[[0,0.5],[1,0.5]];portConstraint=eastwest;whiteSpace=wrap;html=1;" vertex="1" parent="SbO5sFWPzO93ilvdZSw4-88">
          <mxGeometry y="60" width="200" height="26" as="geometry" />
        </mxCell>
        <mxCell id="SbO5sFWPzO93ilvdZSw4-92" style="edgeStyle=none;curved=1;rounded=0;orthogonalLoop=1;jettySize=auto;html=1;entryX=0.01;entryY=0.742;entryDx=0;entryDy=0;entryPerimeter=0;fontSize=12;startSize=8;endSize=8;startArrow=diamondThin;startFill=0;endArrow=none;" edge="1" parent="1" target="SbO5sFWPzO93ilvdZSw4-89">
          <mxGeometry relative="1" as="geometry">
            <mxPoint x="-240" y="485.9111764705881" as="sourcePoint" />
            <mxPoint x="-92.00000000000023" y="488.09600000000023" as="targetPoint" />
            <Array as="points" />
          </mxGeometry>
        </mxCell>
        <mxCell id="SbO5sFWPzO93ilvdZSw4-93" value="[집약] 휴대폰을 충전포트에 연결한다." style="text;html=1;align=center;verticalAlign=middle;whiteSpace=wrap;rounded=0;" vertex="1" parent="1">
          <mxGeometry x="-95" y="565" width="230" height="30" as="geometry" />
        </mxCell>
        <mxCell id="SbO5sFWPzO93ilvdZSw4-94" value="[상속] 빈화살표를 씀&lt;div&gt;인터페이스를 구분하는게 점선&lt;/div&gt;&lt;div&gt;&lt;br&gt;&lt;/div&gt;&lt;div&gt;[상속] 직원은 사람이다&lt;/div&gt;&lt;div&gt;[상속] 정규직은 직원이다.&lt;/div&gt;&lt;div&gt;[상속] 계약직은 직원이다.&lt;/div&gt;" style="text;html=1;align=left;verticalAlign=middle;whiteSpace=wrap;rounded=0;" vertex="1" parent="1">
          <mxGeometry x="240" y="-310" width="300" height="30" as="geometry" />
        </mxCell>
        <mxCell id="SbO5sFWPzO93ilvdZSw4-95" value="사람" style="swimlane;fontStyle=1;align=center;verticalAlign=top;childLayout=stackLayout;horizontal=1;startSize=26;horizontalStack=0;resizeParent=1;resizeParentMax=0;resizeLast=0;collapsible=1;marginBottom=0;whiteSpace=wrap;html=1;" vertex="1" parent="1">
          <mxGeometry x="450" y="-340" width="160" height="138" as="geometry" />
        </mxCell>
        <mxCell id="SbO5sFWPzO93ilvdZSw4-96" value="+ name : String" style="text;strokeColor=none;fillColor=none;align=left;verticalAlign=top;spacingLeft=4;spacingRight=4;overflow=hidden;rotatable=0;points=[[0,0.5],[1,0.5]];portConstraint=eastwest;whiteSpace=wrap;html=1;" vertex="1" parent="SbO5sFWPzO93ilvdZSw4-95">
          <mxGeometry y="26" width="160" height="26" as="geometry" />
        </mxCell>
        <mxCell id="SbO5sFWPzO93ilvdZSw4-104" value="+ age : int" style="text;strokeColor=none;fillColor=none;align=left;verticalAlign=top;spacingLeft=4;spacingRight=4;overflow=hidden;rotatable=0;points=[[0,0.5],[1,0.5]];portConstraint=eastwest;whiteSpace=wrap;html=1;" vertex="1" parent="SbO5sFWPzO93ilvdZSw4-95">
          <mxGeometry y="52" width="160" height="26" as="geometry" />
        </mxCell>
        <mxCell id="SbO5sFWPzO93ilvdZSw4-105" value="+ addr : String" style="text;strokeColor=none;fillColor=none;align=left;verticalAlign=top;spacingLeft=4;spacingRight=4;overflow=hidden;rotatable=0;points=[[0,0.5],[1,0.5]];portConstraint=eastwest;whiteSpace=wrap;html=1;" vertex="1" parent="SbO5sFWPzO93ilvdZSw4-95">
          <mxGeometry y="78" width="160" height="26" as="geometry" />
        </mxCell>
        <mxCell id="SbO5sFWPzO93ilvdZSw4-97" value="" style="line;strokeWidth=1;fillColor=none;align=left;verticalAlign=middle;spacingTop=-1;spacingLeft=3;spacingRight=3;rotatable=0;labelPosition=right;points=[];portConstraint=eastwest;strokeColor=inherit;" vertex="1" parent="SbO5sFWPzO93ilvdZSw4-95">
          <mxGeometry y="104" width="160" height="8" as="geometry" />
        </mxCell>
        <mxCell id="SbO5sFWPzO93ilvdZSw4-98" value="+ method(type): type" style="text;strokeColor=none;fillColor=none;align=left;verticalAlign=top;spacingLeft=4;spacingRight=4;overflow=hidden;rotatable=0;points=[[0,0.5],[1,0.5]];portConstraint=eastwest;whiteSpace=wrap;html=1;" vertex="1" parent="SbO5sFWPzO93ilvdZSw4-95">
          <mxGeometry y="112" width="160" height="26" as="geometry" />
        </mxCell>
        <mxCell id="SbO5sFWPzO93ilvdZSw4-103" style="edgeStyle=none;curved=1;rounded=0;orthogonalLoop=1;jettySize=auto;html=1;fontSize=12;startSize=8;endSize=8;endArrow=block;endFill=0;" edge="1" parent="1" source="SbO5sFWPzO93ilvdZSw4-99" target="SbO5sFWPzO93ilvdZSw4-98">
          <mxGeometry relative="1" as="geometry" />
        </mxCell>
        <mxCell id="SbO5sFWPzO93ilvdZSw4-99" value="직원&lt;div&gt;&amp;lt;&amp;lt;abstract&amp;gt;&amp;gt;&lt;/div&gt;" style="swimlane;fontStyle=1;align=center;verticalAlign=top;childLayout=stackLayout;horizontal=1;startSize=42;horizontalStack=0;resizeParent=1;resizeParentMax=0;resizeLast=0;collapsible=1;marginBottom=0;whiteSpace=wrap;html=1;" vertex="1" parent="1">
          <mxGeometry x="310" y="-152" width="160" height="100" as="geometry" />
        </mxCell>
        <mxCell id="SbO5sFWPzO93ilvdZSw4-100" value="+ field: type" style="text;strokeColor=none;fillColor=none;align=left;verticalAlign=top;spacingLeft=4;spacingRight=4;overflow=hidden;rotatable=0;points=[[0,0.5],[1,0.5]];portConstraint=eastwest;whiteSpace=wrap;html=1;" vertex="1" parent="SbO5sFWPzO93ilvdZSw4-99">
          <mxGeometry y="42" width="160" height="24" as="geometry" />
        </mxCell>
        <mxCell id="SbO5sFWPzO93ilvdZSw4-101" value="" style="line;strokeWidth=1;fillColor=none;align=left;verticalAlign=middle;spacingTop=-1;spacingLeft=3;spacingRight=3;rotatable=0;labelPosition=right;points=[];portConstraint=eastwest;strokeColor=inherit;" vertex="1" parent="SbO5sFWPzO93ilvdZSw4-99">
          <mxGeometry y="66" width="160" height="8" as="geometry" />
        </mxCell>
        <mxCell id="SbO5sFWPzO93ilvdZSw4-102" value="&lt;font style=&quot;color: rgb(255, 7, 7);&quot;&gt;+ setSalary(type): type&lt;/font&gt;" style="text;strokeColor=none;fillColor=none;align=left;verticalAlign=top;spacingLeft=4;spacingRight=4;overflow=hidden;rotatable=0;points=[[0,0.5],[1,0.5]];portConstraint=eastwest;whiteSpace=wrap;html=1;" vertex="1" parent="SbO5sFWPzO93ilvdZSw4-99">
          <mxGeometry y="74" width="160" height="26" as="geometry" />
        </mxCell>
        <mxCell id="SbO5sFWPzO93ilvdZSw4-106" value="Extends" style="text;html=1;align=center;verticalAlign=middle;resizable=0;points=[];autosize=1;strokeColor=none;fillColor=none;fontSize=16;labelBackgroundColor=default;" vertex="1" parent="1">
          <mxGeometry x="440" y="-190" width="80" height="30" as="geometry" />
        </mxCell>
        <mxCell id="SbO5sFWPzO93ilvdZSw4-107" value="계약직" style="swimlane;fontStyle=1;align=center;verticalAlign=top;childLayout=stackLayout;horizontal=1;startSize=26;horizontalStack=0;resizeParent=1;resizeParentMax=0;resizeLast=0;collapsible=1;marginBottom=0;whiteSpace=wrap;html=1;" vertex="1" parent="1">
          <mxGeometry x="210" y="-9" width="160" height="86" as="geometry" />
        </mxCell>
        <mxCell id="SbO5sFWPzO93ilvdZSw4-108" value="+ field: type" style="text;strokeColor=none;fillColor=none;align=left;verticalAlign=top;spacingLeft=4;spacingRight=4;overflow=hidden;rotatable=0;points=[[0,0.5],[1,0.5]];portConstraint=eastwest;whiteSpace=wrap;html=1;" vertex="1" parent="SbO5sFWPzO93ilvdZSw4-107">
          <mxGeometry y="26" width="160" height="26" as="geometry" />
        </mxCell>
        <mxCell id="SbO5sFWPzO93ilvdZSw4-109" value="" style="line;strokeWidth=1;fillColor=none;align=left;verticalAlign=middle;spacingTop=-1;spacingLeft=3;spacingRight=3;rotatable=0;labelPosition=right;points=[];portConstraint=eastwest;strokeColor=inherit;" vertex="1" parent="SbO5sFWPzO93ilvdZSw4-107">
          <mxGeometry y="52" width="160" height="8" as="geometry" />
        </mxCell>
        <mxCell id="SbO5sFWPzO93ilvdZSw4-110" value="+ method(type): type" style="text;strokeColor=none;fillColor=none;align=left;verticalAlign=top;spacingLeft=4;spacingRight=4;overflow=hidden;rotatable=0;points=[[0,0.5],[1,0.5]];portConstraint=eastwest;whiteSpace=wrap;html=1;" vertex="1" parent="SbO5sFWPzO93ilvdZSw4-107">
          <mxGeometry y="60" width="160" height="26" as="geometry" />
        </mxCell>
        <mxCell id="SbO5sFWPzO93ilvdZSw4-111" value="정규직" style="swimlane;fontStyle=1;align=center;verticalAlign=top;childLayout=stackLayout;horizontal=1;startSize=26;horizontalStack=0;resizeParent=1;resizeParentMax=0;resizeLast=0;collapsible=1;marginBottom=0;whiteSpace=wrap;html=1;" vertex="1" parent="1">
          <mxGeometry x="440" y="-9" width="160" height="82" as="geometry" />
        </mxCell>
        <mxCell id="SbO5sFWPzO93ilvdZSw4-112" value="+ field: type" style="text;strokeColor=none;fillColor=none;align=left;verticalAlign=top;spacingLeft=4;spacingRight=4;overflow=hidden;rotatable=0;points=[[0,0.5],[1,0.5]];portConstraint=eastwest;whiteSpace=wrap;html=1;" vertex="1" parent="SbO5sFWPzO93ilvdZSw4-111">
          <mxGeometry y="26" width="160" height="22" as="geometry" />
        </mxCell>
        <mxCell id="SbO5sFWPzO93ilvdZSw4-113" value="" style="line;strokeWidth=1;fillColor=none;align=left;verticalAlign=middle;spacingTop=-1;spacingLeft=3;spacingRight=3;rotatable=0;labelPosition=right;points=[];portConstraint=eastwest;strokeColor=inherit;" vertex="1" parent="SbO5sFWPzO93ilvdZSw4-111">
          <mxGeometry y="48" width="160" height="8" as="geometry" />
        </mxCell>
        <mxCell id="SbO5sFWPzO93ilvdZSw4-114" value="+ method(type): type" style="text;strokeColor=none;fillColor=none;align=left;verticalAlign=top;spacingLeft=4;spacingRight=4;overflow=hidden;rotatable=0;points=[[0,0.5],[1,0.5]];portConstraint=eastwest;whiteSpace=wrap;html=1;" vertex="1" parent="SbO5sFWPzO93ilvdZSw4-111">
          <mxGeometry y="56" width="160" height="26" as="geometry" />
        </mxCell>
      </root>
    </mxGraphModel>
  </diagram>
</mxfile>
